<svg xmlns="http://www.w3.org/2000/svg" xmlns:xlink="http://www.w3.org/1999/xlink" width="397" zoomAndPan="magnify" viewBox="0 0 297.75 297.749991" height="397" preserveAspectRatio="xMidYMid meet" version="1.0"><defs><clipPath id="aeb2d022dc"><path d="M 0.417969 0.582031 L 297.171875 0.582031 L 297.171875 297.332031 L 0.417969 297.332031 Z M 0.417969 0.582031 " clip-rule="nonzero"/></clipPath><clipPath id="869ed322cc"><path d="M 148.835938 0.582031 C 66.867188 0.582031 0.417969 67.027344 0.417969 148.996094 C 0.417969 230.964844 66.867188 297.414062 148.835938 297.414062 C 230.804688 297.414062 297.253906 230.964844 297.253906 148.996094 C 297.253906 67.027344 230.804688 0.582031 148.835938 0.582031 Z M 148.835938 0.582031 " clip-rule="nonzero"/></clipPath><clipPath id="c5540d331f"><path d="M 16.625 16.785156 L 281.050781 16.785156 L 281.050781 281.210938 L 16.625 281.210938 Z M 16.625 16.785156 " clip-rule="nonzero"/></clipPath><clipPath id="6d5958bc5c"><path d="M 148.835938 16.785156 C 75.816406 16.785156 16.625 75.976562 16.625 149 C 16.625 222.019531 75.816406 281.210938 148.835938 281.210938 C 221.855469 281.210938 281.050781 222.019531 281.050781 149 C 281.050781 75.976562 221.855469 16.785156 148.835938 16.785156 Z M 148.835938 16.785156 " clip-rule="nonzero"/></clipPath><clipPath id="6db3332d23"><path d="M 65.304688 191 L 88 191 L 88 214 L 65.304688 214 Z M 65.304688 191 " clip-rule="nonzero"/></clipPath><clipPath id="2374e61d23"><path d="M 83.8125 209.546875 L 106.140625 209.546875 L 106.140625 231.84375 L 83.8125 231.84375 Z M 83.8125 209.546875 " clip-rule="nonzero"/></clipPath><clipPath id="ceaa40b8d9"><path d="M 70 65.058594 L 232.363281 65.058594 L 232.363281 227.496094 L 70 227.496094 Z M 70 65.058594 " clip-rule="nonzero"/></clipPath></defs><g clip-path="url(#aeb2d022dc)"><g clip-path="url(#869ed322cc)"><path stroke-linecap="butt" transform="matrix(0.749371, 0, 0, 0.749371, 0.419519, 0.580498)" fill="none" stroke-linejoin="miter" d="M 198.054726 0.00204557 C 88.671287 0.00204557 -0.00206811 88.670188 -0.00206811 198.053627 C -0.00206811 307.437066 88.671287 396.110421 198.054726 396.110421 C 307.438165 396.110421 396.11152 307.437066 396.11152 198.053627 C 396.11152 88.670188 307.438165 0.00204557 198.054726 0.00204557 Z M 198.054726 0.00204557 " stroke="#1cff00" stroke-width="18" stroke-opacity="1" stroke-miterlimit="4"/></g></g><g clip-path="url(#c5540d331f)"><g clip-path="url(#6d5958bc5c)"><path fill="#00b448" d="M 16.625 16.785156 L 281.050781 16.785156 L 281.050781 281.210938 L 16.625 281.210938 Z M 16.625 16.785156 " fill-opacity="1" fill-rule="nonzero"/></g></g><path fill="#ffffff" d="M 111.855469 154.886719 L 110.109375 153.144531 L 110.980469 154.015625 L 111.855469 154.886719 " fill-opacity="1" fill-rule="nonzero"/><path fill="#ffffff" d="M 107.613281 158.105469 L 126.640625 177.132812 L 123.410156 173.898438 Z M 107.613281 158.105469 " fill-opacity="1" fill-rule="nonzero"/><g clip-path="url(#6db3332d23)"><path fill="#ffffff" d="M 70.070312 212.734375 L 86.972656 195.832031 C 88.003906 194.804688 88.003906 193.136719 86.972656 192.105469 C 85.941406 191.074219 84.273438 191.074219 83.242188 192.105469 L 66.339844 209.007812 C 65.3125 210.039062 65.3125 211.707031 66.339844 212.734375 C 67.371094 213.765625 69.039062 213.765625 70.070312 212.734375 " fill-opacity="1" fill-rule="nonzero"/></g><path fill="#ffffff" d="M 96.140625 201.273438 C 95.109375 200.242188 93.441406 200.242188 92.414062 201.273438 L 68.050781 225.632812 C 67.023438 226.664062 67.023438 228.332031 68.050781 229.363281 C 69.082031 230.390625 70.75 230.390625 71.78125 229.363281 L 96.140625 205.003906 C 97.171875 203.972656 97.171875 202.304688 96.140625 201.273438 " fill-opacity="1" fill-rule="nonzero"/><g clip-path="url(#2374e61d23)"><path fill="#ffffff" d="M 101.582031 210.441406 L 84.679688 227.34375 C 83.648438 228.375 83.648438 230.042969 84.679688 231.074219 C 85.707031 232.101562 87.378906 232.101562 88.40625 231.074219 L 105.308594 214.171875 C 106.339844 213.140625 106.339844 211.472656 105.308594 210.441406 C 104.28125 209.414062 102.609375 209.414062 101.582031 210.441406 " fill-opacity="1" fill-rule="nonzero"/></g><path fill="#ffffff" d="M 185.976562 128.339844 C 181.316406 133 173.734375 133 169.074219 128.339844 C 164.414062 123.679688 164.414062 116.097656 169.074219 111.441406 C 173.734375 106.78125 181.316406 106.78125 185.976562 111.441406 C 190.632812 116.097656 190.632812 123.679688 185.976562 128.339844 Z M 189.703125 107.710938 C 182.988281 100.996094 172.0625 100.996094 165.347656 107.710938 C 158.632812 114.425781 158.632812 125.351562 165.347656 132.070312 C 172.0625 138.785156 182.988281 138.78125 189.703125 132.070312 C 196.417969 125.351562 196.417969 114.425781 189.703125 107.710938 " fill-opacity="1" fill-rule="nonzero"/><g clip-path="url(#ceaa40b8d9)"><path fill="#ffffff" d="M 222.371094 94.976562 C 217.265625 94.441406 212.53125 92.195312 208.871094 88.535156 C 205.210938 84.875 202.964844 80.140625 202.433594 75.050781 C 210.683594 72.515625 218.929688 70.953125 226.960938 70.457031 C 226.472656 78.488281 224.90625 86.730469 222.371094 94.976562 Z M 185.183594 155.175781 C 172.492188 167.871094 157.777344 178.347656 142.535156 185.566406 L 111.855469 154.886719 C 119.0625 139.644531 129.539062 124.929688 142.238281 112.230469 C 158.507812 95.964844 177.808594 83.6875 197.332031 76.742188 C 198.1875 82.597656 200.894531 88.011719 205.144531 92.261719 C 209.390625 96.511719 214.8125 99.21875 220.679688 100.078125 C 213.734375 119.601562 201.457031 138.90625 185.183594 155.175781 Z M 172.550781 194.652344 L 148.214844 218.992188 L 145.273438 191.195312 L 145.160156 190.15625 C 145.332031 190.074219 145.5 189.992188 145.667969 189.910156 C 156.503906 184.6875 167.054688 177.890625 176.828125 169.859375 Z M 132.96875 196.136719 L 128.652344 191.820312 L 117.121094 180.292969 L 101.277344 164.445312 L 107.617188 158.105469 L 123.410156 173.902344 L 139.308594 189.800781 Z M 115.847656 200.894531 L 96.519531 181.566406 L 103.730469 174.355469 L 123.058594 193.683594 Z M 78.425781 149.199219 L 102.761719 124.863281 L 127.554688 120.585938 C 119.523438 130.363281 112.726562 140.914062 107.511719 151.746094 C 107.429688 151.914062 107.347656 152.085938 107.269531 152.253906 L 106.222656 152.140625 Z M 229.648438 65.058594 C 198.410156 65.984375 165.191406 81.820312 138.507812 108.503906 C 136.601562 110.410156 134.742188 112.367188 132.933594 114.359375 C 132.761719 114.355469 132.59375 114.367188 132.417969 114.394531 L 101.042969 119.808594 C 100.503906 119.898438 100.011719 120.15625 99.625 120.542969 L 70.789062 149.375 C 70.074219 150.09375 69.832031 151.160156 70.171875 152.117188 C 70.304688 152.496094 70.519531 152.832031 70.789062 153.105469 C 71.210938 153.523438 71.765625 153.796875 72.378906 153.859375 L 101.335938 156.925781 L 95.683594 162.582031 C 94.65625 163.609375 94.65625 165.28125 95.683594 166.308594 L 100 170.625 L 90.925781 179.699219 C 89.894531 180.730469 89.894531 182.398438 90.925781 183.429688 L 113.984375 206.488281 C 115.015625 207.519531 116.683594 207.519531 117.714844 206.488281 L 126.789062 197.414062 L 131.105469 201.730469 C 132.136719 202.761719 133.804688 202.761719 134.835938 201.730469 L 140.488281 196.078125 L 143.554688 225.035156 C 143.617188 225.648438 143.890625 226.203125 144.3125 226.625 C 144.582031 226.898438 144.917969 227.113281 145.296875 227.246094 C 146.253906 227.582031 147.320312 227.339844 148.039062 226.625 L 176.875 197.789062 C 177.257812 197.40625 177.515625 196.910156 177.605469 196.371094 L 183.019531 164.996094 C 183.046875 164.824219 183.058594 164.652344 183.054688 164.480469 C 185.046875 162.671875 187.003906 160.8125 188.910156 158.90625 C 215.597656 132.21875 231.4375 99 232.363281 67.773438 C 232.40625 66.320312 231.101562 65.015625 229.648438 65.058594 " fill-opacity="1" fill-rule="nonzero"/></g></svg>