<svg xmlns="http://www.w3.org/2000/svg" xmlns:xlink="http://www.w3.org/1999/xlink" width="397" zoomAndPan="magnify" viewBox="0 0 297.75 297.749991" height="397" preserveAspectRatio="xMidYMid meet" version="1.0"><defs><clipPath id="f9275ee41e"><path d="M 0 0.582031 L 296.75 0.582031 L 296.75 297.332031 L 0 297.332031 Z M 0 0.582031 " clip-rule="nonzero"/></clipPath><clipPath id="d77b75f44d"><path d="M 148.417969 0.582031 C 66.449219 0.582031 0 67.027344 0 148.996094 C 0 230.964844 66.449219 297.414062 148.417969 297.414062 C 230.382812 297.414062 296.832031 230.964844 296.832031 148.996094 C 296.832031 67.027344 230.382812 0.582031 148.417969 0.582031 Z M 148.417969 0.582031 " clip-rule="nonzero"/></clipPath><clipPath id="cfda91eb32"><path d="M 16.203125 16.785156 L 280.632812 16.785156 L 280.632812 281.210938 L 16.203125 281.210938 Z M 16.203125 16.785156 " clip-rule="nonzero"/></clipPath><clipPath id="0b39dd128c"><path d="M 148.417969 16.785156 C 75.398438 16.785156 16.203125 75.976562 16.203125 149 C 16.203125 222.019531 75.398438 281.210938 148.417969 281.210938 C 221.4375 281.210938 280.632812 222.019531 280.632812 149 C 280.632812 75.976562 221.4375 16.785156 148.417969 16.785156 Z M 148.417969 16.785156 " clip-rule="nonzero"/></clipPath><clipPath id="8470af3c53"><path d="M 56.378906 118 L 81 118 L 81 125 L 56.378906 125 Z M 56.378906 118 " clip-rule="nonzero"/></clipPath><clipPath id="627387988f"><path d="M 215 118 L 240.722656 118 L 240.722656 125 L 215 125 Z M 215 118 " clip-rule="nonzero"/></clipPath><clipPath id="bf6776671e"><path d="M 119 149 L 128 149 L 128 158.738281 L 119 158.738281 Z M 119 149 " clip-rule="nonzero"/></clipPath><clipPath id="57c075e5e1"><path d="M 170 89 L 192 89 L 192 113 L 170 113 Z M 170 89 " clip-rule="nonzero"/></clipPath><clipPath id="8cf8685eb6"><path d="M 169.410156 91.027344 L 190.628906 86.328125 L 196.785156 114.132812 L 175.566406 118.828125 Z M 169.410156 91.027344 " clip-rule="nonzero"/></clipPath><clipPath id="300187dbea"><path d="M 130.785156 75.632812 L 199.5625 60.40625 L 227.582031 186.980469 L 158.804688 202.207031 Z M 130.785156 75.632812 " clip-rule="nonzero"/></clipPath></defs><g clip-path="url(#f9275ee41e)"><g clip-path="url(#d77b75f44d)"><path stroke-linecap="butt" transform="matrix(0.749371, 0, 0, 0.749371, 0.0000045, 0.580498)" fill="none" stroke-linejoin="miter" d="M 198.056788 0.00204541 C 88.673349 0.00204541 -0.00000600504 88.670188 -0.00000600504 198.053627 C -0.00000600504 307.437066 88.673349 396.110421 198.056788 396.110421 C 307.435015 396.110421 396.10837 307.437066 396.10837 198.053627 C 396.10837 88.670188 307.435015 0.00204541 198.056788 0.00204541 Z M 198.056788 0.00204541 " stroke="#1cff00" stroke-width="18" stroke-opacity="1" stroke-miterlimit="4"/></g></g><g clip-path="url(#cfda91eb32)"><g clip-path="url(#0b39dd128c)"><path fill="#00b448" d="M 16.203125 16.785156 L 280.632812 16.785156 L 280.632812 281.210938 L 16.203125 281.210938 Z M 16.203125 16.785156 " fill-opacity="1" fill-rule="nonzero"/></g></g><path fill="#ffffff" d="M 184.742188 163.441406 C 179.203125 168.296875 176.027344 175.140625 176.027344 182.246094 L 176.027344 183.242188 C 176.027344 186.621094 173.273438 189.375 169.894531 189.375 L 126.941406 189.375 C 123.5625 189.375 120.804688 186.621094 120.804688 183.242188 L 120.804688 182.269531 C 120.804688 175.175781 117.582031 168.273438 111.960938 163.335938 C 100.039062 152.847656 93.195312 137.738281 93.195312 121.882812 C 93.195312 106.207031 99.90625 91.203125 111.601562 80.726562 C 121.859375 71.535156 134.71875 66.660156 148.332031 66.660156 C 150.453125 66.660156 152.585938 66.765625 154.734375 67.007812 C 180.628906 69.882812 201.097656 90.832031 203.414062 116.824219 C 205.007812 134.691406 198.199219 151.6875 184.742188 163.441406 Z M 166.824219 226.191406 L 130.007812 226.191406 C 128.320312 226.191406 126.941406 224.8125 126.941406 223.125 C 126.941406 221.433594 128.320312 220.054688 130.007812 220.054688 L 166.824219 220.054688 C 168.515625 220.054688 169.894531 221.433594 169.894531 223.125 C 169.894531 224.8125 168.515625 226.191406 166.824219 226.191406 Z M 148.417969 238.464844 C 140.84375 238.464844 137.957031 235.023438 136.839844 232.328125 L 160.007812 232.328125 C 158.902344 235.011719 156.003906 238.464844 148.417969 238.464844 Z M 172.960938 210.851562 C 172.960938 212.542969 171.582031 213.917969 169.894531 213.917969 L 126.941406 213.917969 C 125.253906 213.917969 123.875 212.542969 123.875 210.851562 C 123.875 209.160156 125.253906 207.785156 126.941406 207.785156 L 169.894531 207.785156 C 171.582031 207.785156 172.960938 209.160156 172.960938 210.851562 Z M 172.960938 195.511719 C 174.652344 195.511719 176.027344 196.890625 176.027344 198.578125 C 176.027344 200.269531 174.652344 201.648438 172.960938 201.648438 L 123.875 201.648438 C 122.183594 201.648438 120.804688 200.269531 120.804688 198.578125 C 120.804688 196.890625 122.183594 195.511719 123.875 195.511719 Z M 155.414062 60.917969 C 137.703125 58.953125 120.6875 64.359375 107.503906 76.152344 C 94.511719 87.785156 87.058594 104.457031 87.058594 121.882812 C 87.058594 139.5 94.65625 156.289062 107.910156 167.949219 C 112.214844 171.722656 114.671875 176.949219 114.671875 182.269531 L 114.671875 183.242188 C 114.671875 186.464844 115.941406 189.375 117.988281 191.570312 C 115.976562 193.257812 114.671875 195.765625 114.671875 198.578125 C 114.671875 201.851562 116.394531 204.703125 118.972656 206.347656 C 118.207031 207.675781 117.738281 209.210938 117.738281 210.851562 C 117.738281 214.125 119.464844 216.976562 122.039062 218.617188 C 121.273438 219.949219 120.804688 221.46875 120.804688 223.125 C 120.804688 228.203125 124.929688 232.328125 130.007812 232.328125 L 130.394531 232.328125 C 131.652344 237.707031 136.347656 244.597656 148.417969 244.597656 C 160.484375 244.597656 165.183594 237.707031 166.441406 232.328125 L 166.824219 232.328125 C 171.90625 232.328125 176.027344 228.203125 176.027344 223.125 C 176.027344 221.46875 175.5625 219.949219 174.792969 218.617188 C 177.371094 216.976562 179.097656 214.125 179.097656 210.851562 C 179.097656 209.210938 178.628906 207.675781 177.863281 206.347656 C 180.4375 204.703125 182.164062 201.851562 182.164062 198.578125 C 182.164062 195.765625 180.859375 193.257812 178.84375 191.570312 C 180.894531 189.375 182.164062 186.464844 182.164062 183.242188 L 182.164062 182.246094 C 182.164062 176.914062 184.574219 171.746094 188.78125 168.070312 C 203.734375 154.992188 211.296875 136.132812 209.523438 116.273438 C 206.960938 87.390625 184.191406 64.105469 155.414062 60.917969 " fill-opacity="1" fill-rule="nonzero"/><path fill="#ffffff" d="M 157.621094 137.222656 C 157.621094 141.210938 155.042969 144.589844 151.484375 145.863281 L 151.484375 128.582031 C 155.042969 129.851562 157.621094 133.230469 157.621094 137.222656 Z M 139.214844 112.679688 C 139.214844 108.6875 141.789062 105.308594 145.347656 104.039062 L 145.347656 121.320312 C 141.789062 120.046875 139.214844 116.667969 139.214844 112.679688 Z M 157.621094 112.679688 C 157.621094 114.367188 159 115.746094 160.6875 115.746094 C 162.378906 115.746094 163.757812 114.367188 163.757812 112.679688 C 163.757812 105.273438 158.484375 99.074219 151.484375 97.648438 L 151.484375 97.339844 C 151.484375 95.648438 150.105469 94.269531 148.417969 94.269531 C 146.726562 94.269531 145.347656 95.648438 145.347656 97.339844 L 145.347656 97.648438 C 138.351562 99.074219 133.078125 105.273438 133.078125 112.679688 C 133.078125 120.085938 138.351562 126.28125 145.347656 127.707031 L 145.347656 145.863281 C 141.789062 144.589844 139.214844 141.210938 139.214844 137.222656 C 139.214844 135.53125 137.835938 134.152344 136.144531 134.152344 C 134.457031 134.152344 133.078125 135.53125 133.078125 137.222656 C 133.078125 144.628906 138.351562 150.824219 145.347656 152.25 L 145.347656 152.5625 C 145.347656 154.25 146.726562 155.628906 148.417969 155.628906 C 150.105469 155.628906 151.484375 154.25 151.484375 152.5625 L 151.484375 152.25 C 158.484375 150.824219 163.757812 144.628906 163.757812 137.222656 C 163.757812 129.816406 158.484375 123.621094 151.484375 122.191406 L 151.484375 104.039062 C 155.042969 105.308594 157.621094 108.6875 157.621094 112.679688 " fill-opacity="1" fill-rule="nonzero"/><path fill="#ffffff" d="M 151.484375 75.863281 C 151.484375 74.171875 150.105469 72.792969 148.417969 72.792969 C 127.671875 72.792969 109.074219 85.941406 102.132812 105.511719 C 101.570312 107.117188 102.410156 108.867188 104.003906 109.429688 C 104.339844 109.550781 104.6875 109.609375 105.023438 109.609375 C 106.292969 109.609375 107.46875 108.820312 107.910156 107.574219 C 114 90.433594 130.273438 78.929688 148.417969 78.929688 C 150.105469 78.929688 151.484375 77.550781 151.484375 75.863281 " fill-opacity="1" fill-rule="nonzero"/><path fill="#ffffff" d="M 102.710938 115.757812 C 100.984375 115.710938 99.558594 116.921875 99.4375 118.597656 C 99.367188 119.6875 99.332031 120.777344 99.332031 121.882812 C 99.332031 123.570312 100.707031 124.949219 102.398438 124.949219 C 104.089844 124.949219 105.464844 123.570312 105.464844 121.882812 C 105.464844 120.921875 105.503906 119.964844 105.5625 119.03125 C 105.683594 117.328125 104.398438 115.867188 102.710938 115.757812 " fill-opacity="1" fill-rule="nonzero"/><g clip-path="url(#8470af3c53)"><path fill="#ffffff" d="M 80.921875 121.882812 C 80.921875 120.191406 79.542969 118.8125 77.855469 118.8125 L 59.445312 118.8125 C 57.757812 118.8125 56.378906 120.191406 56.378906 121.882812 C 56.378906 123.570312 57.757812 124.949219 59.445312 124.949219 L 77.855469 124.949219 C 79.542969 124.949219 80.921875 123.570312 80.921875 121.882812 " fill-opacity="1" fill-rule="nonzero"/></g><path fill="#ffffff" d="M 81.894531 97.492188 L 63.484375 91.359375 C 61.867188 90.820312 60.140625 91.695312 59.601562 93.300781 C 59.0625 94.90625 59.9375 96.644531 61.542969 97.183594 L 79.953125 103.320312 C 80.277344 103.425781 80.597656 103.472656 80.921875 103.472656 C 82.203125 103.472656 83.402344 102.660156 83.835938 101.378906 C 84.375 99.769531 83.5 98.035156 81.894531 97.492188 " fill-opacity="1" fill-rule="nonzero"/><path fill="#ffffff" d="M 79.953125 140.445312 L 61.542969 146.582031 C 59.9375 147.121094 59.0625 148.859375 59.601562 150.464844 C 60.035156 151.746094 61.234375 152.5625 62.515625 152.5625 C 62.839844 152.5625 63.164062 152.511719 63.484375 152.40625 L 81.894531 146.269531 C 83.5 145.730469 84.375 143.992188 83.835938 142.386719 C 83.296875 140.78125 81.570312 139.90625 79.953125 140.445312 " fill-opacity="1" fill-rule="nonzero"/><g clip-path="url(#627387988f)"><path fill="#ffffff" d="M 237.386719 118.8125 L 218.980469 118.8125 C 217.289062 118.8125 215.910156 120.191406 215.910156 121.882812 C 215.910156 123.570312 217.289062 124.949219 218.980469 124.949219 L 237.386719 124.949219 C 239.078125 124.949219 240.457031 123.570312 240.457031 121.882812 C 240.457031 120.191406 239.078125 118.8125 237.386719 118.8125 " fill-opacity="1" fill-rule="nonzero"/></g><path fill="#ffffff" d="M 215.910156 103.472656 C 216.234375 103.472656 216.558594 103.425781 216.882812 103.320312 L 235.289062 97.183594 C 236.894531 96.644531 237.757812 94.90625 237.230469 93.300781 C 236.691406 91.695312 234.964844 90.820312 233.347656 91.359375 L 214.941406 97.492188 C 213.335938 98.035156 212.472656 99.769531 213 101.378906 C 213.429688 102.660156 214.628906 103.472656 215.910156 103.472656 " fill-opacity="1" fill-rule="nonzero"/><path fill="#ffffff" d="M 235.289062 146.582031 L 216.882812 140.445312 C 215.265625 139.90625 213.539062 140.78125 213 142.386719 C 212.472656 143.992188 213.335938 145.730469 214.941406 146.269531 L 233.347656 152.40625 C 233.671875 152.511719 233.996094 152.5625 234.320312 152.5625 C 235.601562 152.5625 236.800781 151.746094 237.230469 150.464844 C 237.757812 148.859375 236.894531 147.121094 235.289062 146.582031 " fill-opacity="1" fill-rule="nonzero"/><g clip-path="url(#bf6776671e)"><path fill="#ffffff" d="M 123.796875 158.171875 C 125.964844 158.070312 127.78125 156.429688 127.78125 154.183594 L 127.78125 153.601562 C 127.78125 151.507812 125.941406 149.515625 123.796875 149.617188 C 121.625 149.71875 119.808594 151.359375 119.808594 153.601562 L 119.808594 154.183594 C 119.808594 156.277344 121.652344 158.269531 123.796875 158.171875 Z M 123.796875 158.171875 " fill-opacity="1" fill-rule="nonzero"/></g><g clip-path="url(#57c075e5e1)"><g clip-path="url(#8cf8685eb6)"><g clip-path="url(#300187dbea)"><path fill="#ffffff" d="M 182.789062 96.640625 C 184.324219 95.304688 185.597656 94.21875 186.847656 93.113281 C 187.277344 92.726562 187.726562 92.273438 188.28125 92.792969 C 188.792969 93.269531 188.558594 93.84375 188.179688 94.296875 C 186.769531 95.980469 185.328125 97.636719 183.820312 99.394531 C 184.109375 99.566406 184.398438 99.746094 184.695312 99.90625 C 186.613281 100.976562 188.535156 102.046875 190.449219 103.125 C 191.058594 103.46875 191.605469 103.925781 191.273438 104.691406 C 190.917969 105.496094 190.164062 105.4375 189.492188 105.164062 C 187.824219 104.492188 186.179688 103.75 184.371094 102.976562 C 184.425781 103.394531 184.476562 103.730469 184.519531 104.0625 C 184.761719 106.148438 185.039062 108.222656 185.214844 110.3125 C 185.277344 111.027344 185.347656 112.054688 184.375 112.152344 C 183.464844 112.242188 183.410156 111.222656 183.234375 110.566406 C 182.554688 108.0625 181.925781 105.546875 181.277344 103.035156 C 181.199219 102.722656 181.109375 102.421875 180.980469 101.949219 C 179.945312 102.898438 179.035156 103.742188 178.117188 104.566406 C 177.578125 105.042969 177.027344 105.519531 176.445312 105.9375 C 175.898438 106.332031 175.226562 106.660156 174.675781 106.039062 C 174.121094 105.417969 174.519531 104.796875 174.984375 104.292969 C 175.992188 103.21875 177.027344 102.160156 178.042969 101.089844 C 178.265625 100.859375 178.46875 100.609375 178.746094 100.308594 C 177.46875 99.664062 176.25 99.113281 175.082031 98.464844 C 173.847656 97.773438 172.648438 97.03125 171.480469 96.246094 C 170.929688 95.875 170.457031 95.300781 170.84375 94.570312 C 171.242188 93.824219 171.964844 93.980469 172.589844 94.238281 C 174.761719 95.152344 176.929688 96.105469 179.09375 97.035156 C 179.390625 97.164062 179.695312 97.277344 180.164062 97.472656 C 179.984375 95.828125 179.839844 94.3125 179.660156 92.800781 C 179.558594 91.921875 179.367188 91.046875 179.335938 90.171875 C 179.324219 89.796875 179.628906 89.410156 179.796875 89.035156 C 180.214844 89.261719 180.855469 89.394531 181.003906 89.738281 C 181.425781 90.765625 181.683594 91.859375 181.953125 92.941406 C 182.238281 94.078125 182.460938 95.226562 182.777344 96.652344 Z M 182.789062 96.640625 " fill-opacity="1" fill-rule="nonzero"/></g></g></g></svg>