<svg xmlns="http://www.w3.org/2000/svg" xmlns:xlink="http://www.w3.org/1999/xlink" width="397" zoomAndPan="magnify" viewBox="0 0 297.75 297.749991" height="397" preserveAspectRatio="xMidYMid meet" version="1.0"><defs><clipPath id="7b666817c5"><path d="M 0 0.496094 L 296.75 0.496094 L 296.75 297.246094 L 0 297.246094 Z M 0 0.496094 " clip-rule="nonzero"/></clipPath><clipPath id="4730d79756"><path d="M 148.417969 0.496094 C 66.449219 0.496094 0 66.945312 0 148.914062 C 0 230.878906 66.449219 297.328125 148.417969 297.328125 C 230.382812 297.328125 296.832031 230.878906 296.832031 148.914062 C 296.832031 66.945312 230.382812 0.496094 148.417969 0.496094 Z M 148.417969 0.496094 " clip-rule="nonzero"/></clipPath><clipPath id="1d8273058a"><path d="M 16.203125 16.699219 L 280.632812 16.699219 L 280.632812 281.128906 L 16.203125 281.128906 Z M 16.203125 16.699219 " clip-rule="nonzero"/></clipPath><clipPath id="a2e7ec3c0e"><path d="M 148.417969 16.699219 C 75.398438 16.699219 16.203125 75.894531 16.203125 148.914062 C 16.203125 221.933594 75.398438 281.128906 148.417969 281.128906 C 221.4375 281.128906 280.632812 221.933594 280.632812 148.914062 C 280.632812 75.894531 221.4375 16.699219 148.417969 16.699219 Z M 148.417969 16.699219 " clip-rule="nonzero"/></clipPath><clipPath id="f001a804ac"><path d="M 57 61.226562 L 240.722656 61.226562 L 240.722656 227.585938 L 57 227.585938 Z M 57 61.226562 " clip-rule="nonzero"/></clipPath></defs><g clip-path="url(#7b666817c5)"><g clip-path="url(#4730d79756)"><path stroke-linecap="butt" transform="matrix(0.749371, 0, 0, 0.749371, 0.0000045, 0.496062)" fill="none" stroke-linejoin="miter" d="M 198.056788 0.0000419536 C 88.673349 0.0000419536 -0.00000600504 88.673397 -0.00000600504 198.056836 C -0.00000600504 307.435063 88.673349 396.108418 198.056788 396.108418 C 307.435015 396.108418 396.10837 307.435063 396.10837 198.056836 C 396.10837 88.673397 307.435015 0.0000419536 198.056788 0.0000419536 Z M 198.056788 0.0000419536 " stroke="#1cff00" stroke-width="18" stroke-opacity="1" stroke-miterlimit="4"/></g></g><g clip-path="url(#1d8273058a)"><g clip-path="url(#a2e7ec3c0e)"><path fill="#00b448" d="M 16.203125 16.699219 L 280.632812 16.699219 L 280.632812 281.128906 L 16.203125 281.128906 Z M 16.203125 16.699219 " fill-opacity="1" fill-rule="nonzero"/></g></g><g clip-path="url(#f001a804ac)"><path fill="#ffffff" d="M 197.707031 127.011719 C 201.335938 124.730469 203.929688 121.21875 205.046875 117.058594 C 206.21875 112.683594 205.617188 108.113281 203.351562 104.1875 C 198.785156 96.28125 188.773438 93.445312 180.765625 97.664062 L 165.535156 71.285156 C 163.519531 67.796875 160.253906 65.296875 156.34375 64.246094 C 152.429688 63.199219 148.351562 63.730469 144.863281 65.746094 C 141.375 67.761719 138.875 71.023438 137.828125 74.9375 C 137.039062 77.886719 137.144531 80.925781 138.109375 83.738281 C 130.875 101.972656 115.5625 120.5625 94.773438 136.425781 C 94.453125 136.210938 94.097656 136.042969 93.714844 135.941406 C 92.796875 135.695312 91.820312 135.824219 91 136.296875 L 71.566406 147.519531 C 65.027344 151.292969 60.34375 157.414062 58.375 164.75 C 56.410156 172.089844 57.40625 179.730469 61.183594 186.269531 C 66.429688 195.359375 75.984375 200.449219 85.796875 200.449219 C 90.605469 200.449219 95.476562 199.226562 99.933594 196.652344 L 101.046875 196.011719 L 122.480469 223.996094 C 123.960938 225.929688 126.023438 227.066406 128.453125 227.285156 C 128.726562 227.3125 129 227.324219 129.269531 227.324219 C 131.378906 227.324219 133.316406 226.570312 134.914062 225.121094 L 140.820312 219.761719 C 144.101562 216.78125 144.554688 211.871094 141.867188 208.34375 L 121.714844 181.863281 C 145.652344 171.964844 169.191406 168.085938 188.445312 170.917969 C 191.363281 174.253906 195.5625 176.085938 199.859375 176.085938 C 202.425781 176.085938 205.023438 175.433594 207.402344 174.0625 C 214.625 169.890625 217.109375 160.617188 212.9375 153.390625 Z M 197.160156 107.765625 C 198.46875 110.035156 198.816406 112.675781 198.140625 115.207031 C 197.519531 117.523438 196.105469 119.492188 194.128906 120.8125 L 184.34375 103.863281 C 188.933594 101.609375 194.566406 103.273438 197.160156 107.765625 Z M 85.785156 193.300781 C 78.445312 193.300781 71.300781 189.496094 67.375 182.695312 C 64.554688 177.808594 63.808594 172.09375 65.28125 166.601562 C 66.753906 161.109375 70.253906 156.53125 75.140625 153.710938 L 91.480469 144.277344 L 112.699219 181.027344 L 96.359375 190.460938 C 93.027344 192.386719 89.382812 193.300781 85.785156 193.300781 Z M 136.015625 214.46875 L 130.109375 219.824219 C 129.800781 220.109375 129.511719 220.203125 129.09375 220.164062 C 128.675781 220.128906 128.410156 219.984375 128.15625 219.648438 L 107.289062 192.40625 L 116.644531 187.007812 L 136.179688 212.671875 C 136.601562 213.226562 136.53125 214 136.015625 214.46875 Z M 117.886719 175.710938 L 98.675781 142.441406 C 118.6875 127.261719 133.964844 109.53125 142.410156 91.757812 L 183.644531 163.179688 C 164.027344 161.609375 141.035156 165.976562 117.886719 175.710938 Z M 203.824219 167.871094 C 200.011719 170.070312 195.125 168.757812 192.921875 164.949219 L 145.515625 82.839844 C 143.316406 79.027344 144.628906 74.136719 148.4375 71.9375 C 149.65625 71.234375 151.011719 70.875 152.394531 70.875 C 153.089844 70.875 153.796875 70.96875 154.492188 71.152344 C 156.558594 71.707031 158.28125 73.023438 159.34375 74.859375 L 206.746094 156.96875 C 208.949219 160.777344 207.636719 165.667969 203.824219 167.871094 Z M 207.714844 101.671875 C 206.726562 99.960938 207.3125 97.773438 209.023438 96.789062 L 223.371094 88.5 C 225.082031 87.515625 227.269531 88.101562 228.257812 89.808594 C 229.242188 91.519531 228.65625 93.707031 226.949219 94.691406 L 212.597656 102.980469 C 212.035156 103.304688 211.417969 103.457031 210.8125 103.457031 C 209.578125 103.457031 208.375 102.816406 207.714844 101.671875 Z M 191.167969 78.644531 L 199.910156 63.507812 C 200.894531 61.796875 203.082031 61.210938 204.792969 62.199219 C 206.5 63.1875 207.085938 65.371094 206.101562 67.082031 L 197.359375 82.222656 C 196.699219 83.367188 195.496094 84.007812 194.261719 84.007812 C 193.65625 84.007812 193.039062 83.855469 192.476562 83.53125 C 190.765625 82.542969 190.179688 80.355469 191.167969 78.644531 Z M 240.433594 123.9375 C 240.433594 125.910156 238.835938 127.511719 236.859375 127.511719 L 219.378906 127.511719 C 217.40625 127.511719 215.804688 125.910156 215.804688 123.9375 C 215.804688 121.960938 217.40625 120.363281 219.378906 120.363281 L 236.859375 120.363281 C 238.835938 120.363281 240.433594 121.960938 240.433594 123.9375 Z M 240.433594 123.9375 " fill-opacity="1" fill-rule="nonzero"/></g></svg>